# xmcd
#
# Track frame offsets:
#	150
#	37446
#	55493
#	70818
#	78646
#	98521
#	109613
#	129574
#	149862
#	163240
#	174396
#	192345
#	208225
#
# Disc length: 2910 seconds
#
# Revision: 1
# Processed by: cddbd v1.4PL0 Copyright (c) Steve Scherf et al.
# Submitted via: audiograbber 1.80
#
DISCID=cc0b5c0d
DTITLE=Janis Joplin - The Best of ...
DYEAR=1900
DGENRE=
TTITLE0=Ball And Chain
TTITLE1=Cry Baby
TTITLE2=Get It While You Can
TTITLE3=High Heel Sneakers
TTITLE4=Turtle Blues
TTITLE5=Son Of A Preacher Man
TTITLE6=Time Keep Moving On
TTITLE7=Me And My Bobby Mcgee
TTITLE8=In The Quiet Morning
TTITLE9=Buried Live In The Blues
TTITLE10=Try Little Harder
TTITLE11=A Woman Left Lonely
TTITLE12=Mercedes Benz
EXTD=
EXTT0=
EXTT1=
EXTT2=
EXTT3=
EXTT4=
EXTT5=
EXTT6=
EXTT7=
EXTT8=
EXTT9=
EXTT10=
EXTT11=
EXTT12=
PLAYORDER=
